<svg height="16" viewBox="0 0 16 16" width="16" xmlns="http://www.w3.org/2000/svg"><path d="m14.675 5.27795191c-.33125-.796875-1-1.65625-1.528125-1.928125.428125.840625.678125 1.68125.771875 2.3125 0 .003125 0 .00625.003125.0125-.8625-2.15-2.325-3.015625-3.51875-4.903125-.46875-.7375-.340625-.7875-.409375-.76875l-.003125.003125c-1.459375.809375-2.353125 2.446875-2.58125 3.834375-.51875.028125-1.028125.15625-1.496875.378125-.04375.01875-.078125.053125-.096875.09375-.021875.04375-.028125.090625-.01875.134375.00625.028125.01875.053125.034375.071875.015625.021875.0375.040625.059375.053125.025.0125.05.021875.078125.025.025 0 .053125-.003125.078125-.009375l.015625-.00625c.484375-.228125 1.0125-.35 1.546875-.35625 1.965625-.015625 3.0375 1.378125 3.365625 1.946875-.40625-.284375-1.1375-.56875-1.840625-.446875 2.74375 1.371875 2.00625 6.08124999-1.790625 5.91249999-1.859375-.08125-3.034375-1.590625-3.14375-2.83749999 0 0 .353125-1.309375 2.51875-1.309375.234375 0 .90625-.653125.91875-.84375-.003125-.0625-1.33125-.590625-1.846875-1.1-.278125-.271875-.409375-.403125-.525-.5-.0625-.053125-.128125-.103125-.196875-.15-.175-.609375-.18125-1.253125-.021875-1.8625-.78125.35625-1.390625.91875-1.834375 1.415625h-.003125c-.303125-.38125-.28125-1.64375-.2625-1.909375-.00625-.015625-.228125.115625-.25625.1375-.26875.1875-.515625.403125-.74375.6375-.509375.51875-1.38125 1.565625-1.734375 3.1625-.14375.6375-.2125 1.3875-.2125 1.634375 0 4.20937499 3.4125 7.62187499 7.621875 7.62187499 3.771875 0 6.96875-2.725 7.515625-6.33124999.359375-2.396875-.4625-4.096875-.4625-4.125z"/></svg>