<svg height="16" viewBox="0 0 16 16" width="16" xmlns="http://www.w3.org/2000/svg"><path d="m5.35625 0h2.453125 2.453125l1.396875 1.5875s1.228125-.340625 1.80625.2375 1.05625 1.090625 1.05625 1.090625l-.375.921875.478125 1.365625s-1.403125 5.31875-1.565625 5.96875c-.325 1.278125-.54375 1.775-1.465625 2.421875s-2.590625 1.775-2.8625 1.94375c-.059375.0375-.121875.078125-.184375.121875-.234375.159375-.49375.3375-.734375.3375-.240625 0-.503125-.178125-.734375-.3375-.0625-.04375-.125-.0875-.184375-.121875-.271875-.171875-1.940625-1.296875-2.8625-1.94375s-1.140625-1.14375-1.465625-2.421875c-.165625-.65-1.565625-5.96875-1.565625-5.96875l.478125-1.365625-.38125-.921875s.478125-.5125 1.05625-1.090625 1.80625-.2375 1.80625-.2375zm2.453125 12.7375c.115625 0 .278125-.146875.40625-.2625.01875-.015625.0375-.034375.053125-.046875.13125-.115625 1.49375-1.171875 1.59375-1.24375s.16875-.203125.059375-.271875c-.0875-.053125-.3125-.171875-.634375-.3375-.09375-.05-.196875-.1-.303125-.15625-.48125-.25-1.078125-.459375-1.171875-.459375-.09375 0-.690625.2125-1.171875.459375-.109375.05625-.209375.109375-.303125.15625-.321875.165625-.55.284375-.634375.3375-.1125.06875-.04375.2.059375.271875s1.4625 1.128125 1.59375 1.24375c.015625.015625.034375.03125.053125.046875.128125.115625.290625.2625.40625.2625zm0-5.178125c.146875 0 .55-.09375.825-.15625l.0625-.015625c.24375-.05625.228125-.196875.2-.40625-.003125-.025-.00625-.05-.009375-.075-.01875-.190625-.18125-1.034375-.284375-1.571875-.034375-.18125-.0625-.328125-.075-.403125-.046875-.253125-.01875-.29375.021875-.353125.00625-.009375.015625-.021875.021875-.034375.04375-.071875.5-.19375.871875-.296875.078125-.021875.15-.040625.215625-.059375.33125-.09375 1.0125-.01875 1.38125.01875.05625.00625.10625.0125.146875.015625.3.028125.325.071875.225.11875-.071875.034375-.50625.196875-.896875.340625-.146875.05625-.2875.109375-.4.15-.046875.015625-.09375.034375-.140625.053125-.390625.14375-.85.3125-.903125.60625-.046875.259375.1625.621875.353125.946875.05.0875.1.171875.14375.253125.196875.371875.203125.415625.190625.565625-.0125.121875-.453125.396875-.7.55-.05625.034375-.103125.065625-.13125.084375-.025.015625-.065625.04375-.11875.075-.26875.1625-.821875.5-.821875.703125 0 .24375.76875.878125 1.0125 1.0375s.903125.503125 1.184375.55625.71875-.265625.975-.74375c.240625-.45.053125-.890625-.1-1.25l-.028125-.06875c-.140625-.33125.059375-.53125.19375-.665625.015625-.015625.03125-.03125.04375-.04375l1.34375-1.428125c.040625-.040625.078125-.08125.115625-.11875.18125-.178125.3375-.328125.3375-.7125 0-.465625-1.796875-2.640625-1.796875-2.640625s-1.515625.290625-1.721875.290625c-.1625 0-.478125-.109375-.80625-.221875-.084375-.028125-.16875-.059375-.25-.084375-.40625-.134375-.68125-.1375-.68125-.1375s-.271875 0-.68125.1375c-.084375.028125-.16875.05625-.25.084375-.328125.1125-.64375.221875-.80625.221875-.203125 0-1.721875-.290625-1.721875-.290625s-1.796875 2.175-1.796875 2.640625c0 .384375.153125.534375.3375.7125.0375.0375.078125.075.115625.11875l1.346875 1.43125c.0125.015625.028125.028125.04375.04375.134375.134375.33125.334375.19375.665625l-.028125.06875c-.153125.359375-.34375.8-.1 1.25.25625.478125.69375.796875.975.74375s.940625-.396875 1.184375-.55625 1.0125-.79375 1.0125-1.0375c0-.203125-.553125-.540625-.821875-.703125-.053125-.03125-.096875-.059375-.11875-.075-.028125-.01875-.075-.046875-.13125-.084375-.246875-.153125-.6875-.428125-.7-.55-.0125-.15-.009375-.19375.190625-.565625.040625-.078125.090625-.165625.14375-.253125.1875-.325.4-.6875.353125-.946875-.053125-.29375-.5125-.4625-.903125-.60625-.05-.01875-.096875-.034375-.140625-.053125-.1125-.04375-.253125-.096875-.4-.15h-.003125c-.390625-.146875-.825-.309375-.896875-.340625-.1-.046875-.071875-.0875.225-.11875.040625-.003125.090625-.009375.146875-.015625.36875-.040625 1.05-.1125 1.38125-.01875.065625.01875.1375.0375.215625.059375.371875.1.828125.225.871875.296875.00625.0125.015625.021875.021875.034375.040625.059375.06875.1.021875.353125-.0125.075-.040625.221875-.075.403125-.103125.5375-.265625 1.38125-.284375 1.571875-.003125.025-.00625.053125-.009375.075-.025.209375-.04375.35.2.40625l.0625.015625c.275.0625.68125.15625.825.15625z"/></svg>