<svg height="16" viewBox="0 0 16 16" width="16" xmlns="http://www.w3.org/2000/svg"><path d="m10.1252731 1.05478314c-5.49003341 0-8.14795791 7.21897455-4.75781392 11.45423536 1.17735733 1.4644389 2.85791397 2.4385812 4.75781392 2.4385812 1.170906 0 2.2676224-.3580457 3.2062827-.9805935-1.4128288 1.2644495-3.2869237 2.032151-5.33197721 2.032151-.12579983 0-.25805092 0-.38385075-.0096769-4.24171203-.1967639-7.61572784-3.6965795-7.61572784-7.98990171 0-4.41912204 3.58045655-7.99957859 7.99957859-7.99957859h.02580509c2.03537662.00967691 3.89334332.7773784 5.30294642 2.03537665-.9354346-.62577349-2.0353766-.98059351-3.203057-.98059351zm3.2836979 12.82835646c-1.3192853.7967322-2.9256523.7612502-4.25784017-.1870869 1.81280777-.6612555 3.15144687-2.9546831 3.15144687-5.69647411 0-2.73211414-1.3289622-5.02554171-3.14176996-5.69647411 1.34831606-.94188587 2.94178056-.97736787 4.28687096-.16128183 3.4159491 3.18370326 3.4030465 8.57051625-.0387077 11.74131695z" fill="#fff"/></svg>