<svg height="16" viewBox="0 0 16 16" width="16" xmlns="http://www.w3.org/2000/svg"><path d="m0 8c0-1.45625.390625-2.825 1.071875-4.028125l3.43125 5.975c.684375 1.225 1.99375 2.053125 3.496875 2.053125.446875 0 .846875-.071875 1.275-.20625l-2.384375 4.13125c-3.89375-.540625-6.890625-3.884375-6.890625-7.925zm11.409375 2.05c.384375-.6.590625-1.328125.590625-2.05 0-1.19375-.525-2.265625-1.353125-3h4.771875c.375.925.58125 1.940625.58125 3 0 4.41875-3.58125 7.971875-8 8zm3.521875-6.05h-6.93125c-1.965625 0-3.553125 1.378125-3.921875 3.209375l-2.384375-4.13125c1.4625-1.875 3.74375-3.078125 6.30625-3.078125 2.9625 0 5.546875 1.609375 6.93125 4zm-9.68125 4c0-1.51875 1.23125-2.75 2.75-2.75s2.75 1.23125 2.75 2.75-1.23125 2.75-2.75 2.75-2.75-1.23125-2.75-2.75z" fill="#fff"/></svg>