<svg height="16" viewBox="0 0 16 16" width="16" xmlns="http://www.w3.org/2000/svg"><path d="m8.60322581 8.60322581-1.20645162-1.20645162-2.3 3.50645161zm-.60322581-8.60322581c-4.41935484 0-8 3.58064516-8 8 0 4.4193548 3.58064516 8 8 8 4.4193548 0 8-3.5806452 8-8 0-4.41935484-3.5806452-8-8-8zm5.0290323 5.63870968.4774193-.1967742c.1309444-.05352977.280576.00833715.3354839.13870968.0267282.06328899.0271174.13462325.0010812.19820006-.0260363.06357682-.0763484.11414769-.1397909.14050962l-.4774193.19677419c-.063289.02672827-.1346233.02711739-.1982001.00108117-.0635768-.02603621-.1141477-.07634839-.1405096-.13979085-.0265456-.06369536-.0264758-.13536893.0001939-.19901243.0266697-.06364351.0777173-.11395494.1417416-.13969724zm-3.14516133-2.86451613.19677423-.47741936c.0263619-.06344245.0769328-.11375463.1405096-.13979085s.1349111-.02564709.1982.00108118c.0634425.02636193.1137547.0769328.1397909.14050961s.0256471.13491108-.0010812.19820006l-.1967742.47741936c-.0263619.06344245-.0769328.11375463-.1405096.13979085s-.1349111.02564709-.1982001-.00108117c-.06344241-.02636193-.11375459-.07693281-.1397908-.14050962-.02603622-.06357681-.0256471-.13491108.00108117-.19820006zm-1.88387097-1.0967742c.1425251 0 .25806452.11553942.25806452.25806452v.51612903c0 .1425251-.11553942.25806452-.25806452.25806452-.1425251 0-.25806452-.11553942-.25806452-.25806452v-.51612903c0-.1425251.11553942-.25806452.25806452-.25806452zm-2.41935484.48064517c.06328899-.02672827.13462325-.0271174.19820006-.00108118.06357682.02603622.11414769.0763484.14050962.13979085l.19677419.47741936c.0543377.13183571-.00848686.28275908-.14032258.33709677-.13183571.0543377-.28275908-.00848686-.33709677-.14032258l-.1967742-.47741935c-.05352977-.13094439.00833715-.28057602.13870968-.33548387zm-2.0516129 1.37096774c.10072967-.10048601.26378645-.10048601.36451613 0l.36451613.36451613c.10048601.10072967.10048601.26378645 0 .36451613-.10072968.10048601-.26378646.10048601-.36451613 0l-.36451613-.36451613c-.10048601-.10072968-.10048601-.26378646 0-.36451613zm-1.85161291 4.47096774c0-.1425251.11553942-.25806452.25806452-.25806452h.51612903c.1425251 0 .25806452.11553942.25806452.25806452 0 .1425251-.11553942.25806452-.25806452.25806452h-.51612903c-.1425251 0-.25806452-.11553942-.25806452-.25806452zm1.2967742 2.3612903-.47741936.1967742c-.06328898.0267283-.13462325.0271174-.19820006.0010812s-.11414768-.0763484-.14050961-.1397909c-.02672827-.0632889-.0271174-.1346232-.00108118-.1982s.0763484-.1141477.13979085-.1405096l.47741936-.19677423c.06328898-.02672827.13462325-.02711739.19820006-.00108117.06357681.02603621.11414769.07634839.14050962.1397908.02672826.063289.02711739.1346233.00108117.1982001s-.0763484.1141477-.13979085.1405096zm.13870968-4.38709675c-.02574231.06402422-.07605374.11507189-.13969724.14174155-.06364351.02666967-.13531708.02673951-.19901244.00019393l-.47741936-.19677419c-.06344245-.02636193-.11375463-.0769328-.13979085-.14050962-.02603622-.06357681-.02564709-.13491107.00108118-.19820006.02636193-.06344245.0769328-.11375463.14050961-.13979085s.13491108-.02564709.19820006.00108117l.47741936.1967742c.13037253.05490785.19223945.20453948.13870968.33548387zm3.0032258 7.25161295-.19677419.4774193c-.0543377.1318357-.20526106.1946603-.33709677.1403226-.13183572-.0543377-.19466028-.2052611-.14032259-.3370968l.1967742-.4774193c.03515032-.0852828.11312837-.1453348.20456056-.1575351.0914322-.0122003.18242781.0253046.23870968.0983871.05628187.0730824.06929944.1706394.03414911.2559222zm2.14193549.8387096c0 .1425251-.11553942.2580645-.25806452.2580645-.1425251 0-.25806452-.1155394-.25806452-.2580645v-.516129c0-.1425251.11553942-.2580645.25806452-.2580645.1425251 0 .25806452.1155394.25806452.2580645zm2.16129028-.2225806c-.0632889.0267282-.1346232.0271174-.1982.0010812-.0635768-.0260363-.1141477-.0763484-.1405096-.1397909l-.19677423-.4774193c-.02672827-.063289-.02711739-.1346233-.00108117-.1982001.02603621-.0635768.07634839-.1141477.1397908-.1405096.063289-.0267283.1346233-.0271174.1982001-.0010812s.1141477.0763484.1405096.1397909l.1967742.4774193c.0267283.063289.0271174.1346233.0010812.1982001s-.0763484.1141477-.1397909.1405096zm2.0516129-1.3709678c-.1007296.1004861-.2637864.1004861-.3645161 0l-.3645161-.3645161c-.100486-.1007297-.100486-.2637864 0-.3645161.1007297-.100486.2637864-.100486.3645161 0l.3645161.3645161c.1004861.1007297.1004861.2637865 0 .3645161zm-3.49354835-3.49354835-5.67741935 3.72258065 3.72580645-5.67419355 5.67419355-3.72580645zm4.86451615 1.44193545c-.0263619.0634425-.0769328.1137547-.1405096.1397909s-.1349111.0256471-.1982001-.0010812l-.4774193-.1967742c-.0634425-.0263619-.1137547-.0769328-.1397909-.1405096s-.0256471-.1349111.0010812-.1982001c.0263619-.06344241.0769328-.11375459.1405096-.1397908.0635768-.02603622.1349111-.0256471.1982001.00108117l.4774193.19677423c.0634425.0263619.1137546.0769328.1397909.1405096.0260362.0635768.025647.1349111-.0010812.1982zm.2225806-2.16129028h-.516129c-.1425251 0-.2580645-.11553942-.2580645-.25806452 0-.1425251.1155394-.25806452.2580645-.25806452h.516129c.1425251 0 .2580645.11553942.2580645.25806452 0 .1425251-.1155394.25806452-.2580645.25806452z"/></svg>