<svg height="16" viewBox="0 0 16 16" width="16" xmlns="http://www.w3.org/2000/svg"><path d="m7.57280351 1.00005982c.66743545-.00564255 1.27848532.38829095 1.57004652 1.01230595l2.34193937 5.01312579.1313991-.17254528c.4297804-.58955805.7389493-1.26433749.9084371-1.9827173l.0466368-.21678034c.1538199-.84202366.8572841-1.45473333 1.6818719-1.46494093.5778881-.00436548 1.1198823.29084293 1.4452438.78723102.2602211.39347081.3576444.87900995.2704321 1.34778222-.3678201 2.00608142-1.4323896 3.80657386-2.8819005 5.13184585l.8610087 1.8489226c.1799641.3696532.2346818.7915947.1553024 1.1975761-.1733854.8195046-.8682 1.4060772-1.675503 1.4145099-.6673211.0036846-1.277738-.3901037-1.5706616-1.0132812l-.7578957-1.6232451-.60464334-1.2834408.59974424 1.2829316c-.81533016.2980473-1.67205022.4555917-2.53628046.466441-.79659881.0025078-1.5887884-.1227489-2.34913363-.3707163l-.69714644 1.5453415c-.25275519.5825511-.77849033.9868591-1.38841391 1.0677368-.37184409.0448073-.74760749-.038188-1.07046027-.2352382-.26112371-.1552979-.47766533-.3818801-.62610902-.6542879-.2812765-.5069349-.30687788-1.1246177-.06858785-1.6548138l.80051812-1.7882173.22899613.1902374c-.07631263-.0616185-.1516751-.1245296-.22605665-.1887099-.90453039-.78345619-1.60367512-1.71840711-2.01697251-2.71338549-.35763661-.85184724-.03233427-1.93231338.75936541-2.36001911.43441327-.23892589.94623125-.27403436 1.40709025-.09652022.46085899.17751414.82704251.55081212 1.00671192 1.02627101.08278064.19465554.18424977.37997861.30278963.55318015l.08929533.12369693 2.30929623-5.1509845c.26497871-.59196814.81618547-.9850448 1.4365617-1.0341001zm.99455298 8.0099354-.76441897-1.63043173c-.03403013-.07279048-.10531161-.11874535-.18317588-.11809958-.07786428.00065948-.14842336.04780319-.18131951.12115462l-.75173981 1.67765757c.20801328.04551628.41784508.07396517.62874297.08520554l.21118121.0054964c.28066695-.00301222.56025882-.03380741.83499911-.0918753z"/></svg>