<svg height="16" viewBox="0 0 16 16" width="16" xmlns="http://www.w3.org/2000/svg"><path d="m11 8c0 .69375-.0375 1.3625-.103125 2h-5.79375c-.06875-.6375-.103125-1.30625-.103125-2s.0375-1.3625.103125-2h5.79375c.06875.6375.103125 1.30625.103125 2zm.9-2h3.846875c.165625.640625.253125 1.309375.253125 2s-.0875 1.359375-.253125 2h-3.846875c.065625-.64375.1-1.3125.1-2s-.034375-1.35625-.1-2zm3.51875-1h-3.646875c-.3125-1.996875-.93125-3.66875-1.728125-4.7375 2.446875.646875 4.4375 2.421875 5.371875 4.7375zm-4.659375 0h-5.51875c.190625-1.1375.484375-2.14375.84375-2.959375.328125-.7375.69375-1.271875 1.046875-1.609375.35-.33125.640625-.43125.86875-.43125s.51875.1.86875.43125c.353125.3375.71875.871875 1.046875 1.609375.3625.8125.653125 1.81875.84375 2.959375zm-6.53125 0h-3.646875c.9375-2.315625 2.925-4.090625 5.375-4.7375-.796875 1.06875-1.415625 2.740625-1.728125 4.7375zm-3.975 1h3.846875c-.065625.64375-.1 1.3125-.1 2s.034375 1.35625.1 2h-3.846875c-.165625-.640625-.253125-1.309375-.253125-2s.0875-1.359375.253125-2zm5.83125 7.95625c-.3625-.8125-.653125-1.81875-.84375-2.95625h5.51875c-.190625 1.1375-.484375 2.14375-.84375 2.95625-.328125.7375-.69375 1.271875-1.046875 1.609375-.35.334375-.640625.434375-.86875.434375s-.51875-.1-.86875-.43125c-.353125-.3375-.71875-.871875-1.046875-1.609375zm-1.85625-2.95625c.3125 1.996875.93125 3.66875 1.728125 4.7375-2.45-.646875-4.4375-2.421875-5.375-4.7375zm11.190625 0c-.9375 2.315625-2.925 4.090625-5.371875 4.7375.796875-1.06875 1.4125-2.740625 1.728125-4.7375z" fill="#fff"/></svg>