<svg height="16" viewBox="0 0 16 16" width="16" xmlns="http://www.w3.org/2000/svg"><path d="m3.753125 1.16983818c1.28125-.7875 2.7375-1.19375 4.215625-1.16875 5.25 0 8.03125 3.86875 8.03125 6.859375-.003125 1.021875-.40625 1.996875-1.121875 2.725-.715625.72500002-1.6875 1.14062502-2.709375 1.15625002-2.35 0-2.859375-.721875-2.859375-1.00000002 0-.11875.0375-.19375.15-.29375l.03125-.0375.0125-.05c.328125-.359375.496875-.81875.496875-1.3 0-2.459375-2.56875-4.459375-5.75-4.459375-1.171875-.009375-2.328125.278125-3.359375.840625.84375-1.796875 2.584375-3.05 2.853125-3.24375.025-.01875.009375-.028125.009375-.028125zm.4875 9.94062502c-.04375.9375.14375 1.875.5125 2.725.425.825 1.021875 1.59375 1.765625 2.165625-1.859375-.359375-3.484375-1.371875-4.66875-2.790625-1.190625-1.45-1.85-3.25937502-1.85-5.15000002 0-1.6 1.95-2.95 4.25-2.95 1.14375-.01875 2.2625.340625 3.18125 1.021875l-.1125.0375c-1.609375.55-3.078125 2.834375-3.078125 4.94062502zm10.440625 1.390625-.021875.003125c-.36875.5875-.809375 1.096875-1.31875 1.546875-.9625.875-2.128125 1.421875-3.4 1.559375-.58125.009375-1.15-.1-1.68125-.35625-.8-.321875-1.471875-.9375-1.925-1.65625-.45-.746875-.659375-1.615625-.59375-2.4875-.01875-.628125.16875-1.25937502.46875-1.81875002.434375 1.03437502 1.171875 1.91562502 2.1125 2.52500002s2.046875.921875 3.16875.89375c.96875.009375 1.940625-.209375 2.81875-.640625l.059375-.028125c.121875-.071875.240625-.121875.3625 0 .140625.153125.05625.2875-.0375.4375-.00625.00625-.009375.015625-.0125.021875z"/></svg>