<svg height="16" viewBox="0 0 16 16" width="16" xmlns="http://www.w3.org/2000/svg"><path d="m6.96095035.00140933h2.07797768c2.86262607.01221423 4.54662517.13028512 5.68799997 1.27163703 1.1852739 1.18525627 1.267017 2.9557061 1.2726544 6.0235066v1.40676694c-.0056374 3.0678412-.0873805 4.8382746-1.2726544 6.0235432-1.1852739 1.1852687-2.955715 1.2670114-6.02356975 1.2726488h-1.40677314c-3.06781399-.0056374-4.83827119-.0873801-6.02352647-1.2726488-1.14136292-1.1413698-1.25943494-2.8253615-1.27164929-5.68797489l-.00095974-1.74233525c.00591499-3.0678005.08959229-4.83825033 1.27260903-6.0235066 1.13919923-1.14135191 2.82492383-1.2594228 5.68789171-1.27163703zm-1.25930659 2.45585008c-1.09575124.45429323-2.03224847 1.22332638-2.69111788 2.20989281s-1.01052421 2.14637948-1.01052421 3.3327792c0 1.18646638.3516548 2.34626608 1.01052421 3.33286588.65886941.9865331 1.59536664 1.7555996 2.69111788 2.2098661 1.0957179.4542666 2.30152292.5734666 3.46499443.3423999 1.16340481-.2310666 2.23227601-.8019331 3.07141281-1.6404662.558469-.5567332 1.0016042-1.2182664 1.3039388-1.9466662.3023346-.72839986.4580019-1.50926634.4580019-2.29799948 0-.78866648-.1556673-1.56957296-.4580019-2.29795945-.3023346-.72839316-.7454698-1.38991967-1.3039388-1.94665954-.8391368-.83853313-1.908008-1.40940632-3.07141281-1.64045294-1.16347151-.23104661-2.36927653-.1118933-3.46499443.34239992zm-.20037417 2.65725937c.12987787.07334931.24054713.17553275.32382599.2980955l.47419483.81995423.41340423.72436316c.20033416.34766658.39340164.69533316.59860249 1.03819975.13046721.23693328.319868.43613323.54993563.57833319.23013429.1421333.49300205.22233328.76320318.23293328.41040171.0254.81480339-.10806664 1.1294047-.37286658.31460136-.26479993.51520216-.64046651.56033566-1.04926641 0-.06519999 0-.13039997.0144667-.16419996.0014667-.25833327-.0564002-.51353321-.168934-.74605316-.069067-.12806663-.1092005-.2696866-.1177338-.41493323-.0085334-.14523997.0148667-.2905866.0684669-.42583323.0536003-.1352533.1362006-.25712661.2418677-.35707992.1057338-.09995331.232001-.17555329.3700015-.22151328.1380006-.04595332.2844012-.06114665.4289352-.04450665.1444672.01663999.2836011.06470665.407535.14082663.1240005.07611998.229801.17845329.3100013.29981326s.1329339.25881327.1544006.40270657c.0272001.23129328-.0238001.46503322-.1448006.66397984l-2.966679 5.16459213c-.07793366.1525333-.19406748.2823332-.33706807.3766665-.14293393.0943334-.30793462.1500667-.478802.1617333-.18866745.0210667-.37926824-.0153333-.54686894-.1045333-.16753403-.0891999-.30426794-.2269999-.39213497-.3952665l-.93478306-1.619508-.93115805-1.62315793c-.37978158-.65673318-.75795649-1.31506635-1.13452473-1.97501286-.0893937-.14817996-.13868724-.31708659-.14304059-.49009988s.03638682-.34418659.11821382-.49667988c.08182701-.1524933.20192751-.28105327.34848812-.37305325.14656061-.09199331.31453465-.14424663.48740203-.15162663.18608745-.01141333.37150155.03129999.53384223.12299331z"/></svg>